<svg width="749" height="129" viewBox="0 0 749 129" fill="none" xmlns="http://www.w3.org/2000/svg">
<path d="M145.74 112.92C146.033 115.707 147.573 117.32 150.36 117.76L162.24 119.96V127H117.36V119.96L132.54 117.32L114.28 6.65999H119.12L84.36 121.5H75.56L35.08 6.65999H39.7L26.94 117.32L43 119.96V127H0.1V119.96L12.2 117.76C14.84 117.32 16.3067 115.633 16.6 112.7L28.26 17C28.7 13.92 27.38 12.16 24.3 11.72L9.56 9.08V2.04H48.06L84.58 108.96H78.2L110.1 2.04H148.82V9.08L134.08 11.72C131 12.16 129.68 13.9933 130.12 17.22L145.74 112.92ZM253.934 31.74L250.634 16.34C250.047 14.2867 248.507 12.7467 246.014 11.72C244.107 10.9867 241.614 10.5467 238.534 10.4C235.454 10.1067 232.007 9.96 228.194 9.96H205.974V58.58L246.454 57.26V68.04L205.974 67.16V118.42H233.034C236.847 118.42 240.44 118.273 243.814 117.98C247.187 117.687 249.827 117.173 251.734 116.44C253.054 116 254.007 115.413 254.594 114.68C255.327 113.8 255.914 112.847 256.354 111.82L262.074 95.32L269.114 96.2C268.967 101.04 268.6 106.1 268.014 111.38C267.427 116.66 266.62 121.867 265.594 127H175.174V119.96L188.154 117.54C190.94 117.1 192.334 115.413 192.334 112.48V16.78C192.334 13.8467 190.94 12.16 188.154 11.72L175.174 9.08V2.04H261.634C261.927 6.87999 262 11.72 261.854 16.56C261.854 21.2533 261.634 26.3133 261.194 31.74H253.934ZM372.708 91.58L379.748 92.46C379.601 97.8867 379.234 103.68 378.648 109.84C378.208 116 377.401 121.72 376.228 127H286.248V119.96L299.228 117.76C302.014 117.32 303.408 115.633 303.408 112.7V16.78C303.408 13.7 302.014 11.94 299.228 11.5L286.248 9.08V2.04H338.168V9.08L321.448 11.72C318.514 12.16 317.048 13.8467 317.048 16.78V118.42H342.788C346.748 118.42 350.341 118.273 353.568 117.98C356.794 117.687 359.434 117.173 361.488 116.44C363.688 115.56 365.228 114.02 366.108 111.82L372.708 91.58ZM505.548 2.04V9.08L495.648 11.5C492.862 12.0867 491.468 13.8467 491.468 16.78V81.24C491.468 92.24 489.635 101.26 485.968 108.3C482.448 115.193 477.242 120.327 470.348 123.7C463.602 127.073 455.315 128.76 445.488 128.76C430.235 128.76 419.088 124.58 412.048 116.22C405.155 107.86 401.708 95.4667 401.708 79.04V16.78C401.708 13.8467 400.388 12.0867 397.748 11.5L388.068 9.08V2.04H434.708V9.08L419.968 11.72C417.182 12.16 415.788 13.92 415.788 17V80.58C415.788 90.8467 417.182 98.9133 419.968 104.78C422.755 110.647 426.568 114.827 431.408 117.32C436.395 119.667 441.968 120.84 448.128 120.84C459.715 120.84 468.075 117.613 473.208 111.16C478.342 104.56 480.908 94.8067 480.908 81.9V16.78C480.908 13.8467 479.515 12.16 476.728 11.72L462.648 9.08V2.04H505.548ZM603.567 93.56C603.567 99.4267 602.027 105.073 598.947 110.5C596.014 115.927 591.467 120.327 585.307 123.7C579.147 127.073 571.227 128.76 561.547 128.76C553.04 128.76 545.487 127.66 538.887 125.46C532.434 123.113 527.3 120.693 523.487 118.2C523.34 113.213 523.34 108.3 523.487 103.46C523.78 98.4733 524.22 93.34 524.807 88.06H533.167L536.027 106.1C536.174 106.833 536.394 107.713 536.687 108.74C537.127 109.62 537.86 110.573 538.887 111.6C541.234 113.947 544.46 116.073 548.567 117.98C552.82 119.887 557.66 120.84 563.087 120.84C571.74 120.84 578.267 118.787 582.667 114.68C587.214 110.427 589.487 104.707 589.487 97.52C589.487 92.0933 588.314 87.84 585.967 84.76C583.62 81.5333 580.247 78.82 575.847 76.62C571.594 74.2733 566.534 71.78 560.667 69.14C555.68 66.94 550.474 64.3733 545.047 61.44C539.62 58.36 535.074 54.4733 531.407 49.78C527.74 45.0867 525.907 39.0733 525.907 31.74C525.907 22.6467 529.28 15.1667 536.027 9.29999C542.774 3.28666 552.6 0.279992 565.507 0.279992C571.08 0.279992 576.727 0.86666 582.447 2.04C588.167 3.21333 593.08 4.82667 597.187 6.88C597.48 12.16 597.554 17.1467 597.407 21.84C597.26 26.3867 596.82 30.9333 596.087 35.48H587.947L584.867 19.64C584.72 18.76 584.427 17.88 583.987 17C583.547 15.9733 582.74 14.9467 581.567 13.92C579.807 12.3067 577.167 10.9133 573.647 9.73999C570.127 8.56666 566.24 7.98 561.987 7.98C554.36 7.98 548.567 9.74 544.607 13.26C540.647 16.6333 538.667 21.5467 538.667 28C538.667 33.1333 539.84 37.3133 542.187 40.54C544.534 43.7667 547.98 46.6267 552.527 49.12C557.22 51.6133 562.794 54.4 569.247 57.48C574.967 60.12 580.394 62.9067 585.527 65.84C590.807 68.7733 595.134 72.44 598.507 76.84C601.88 81.0933 603.567 86.6667 603.567 93.56ZM748.313 9.08L735.553 11.72C732.62 12.4533 731.153 14.2133 731.153 17V112.26C731.153 115.193 732.62 116.953 735.553 117.54L748.313 119.96V127H701.453V119.96L713.113 117.54C716.046 116.807 717.513 115.047 717.513 112.26V67.16H653.493V112.48C653.493 115.12 654.96 116.807 657.893 117.54L670.213 119.96V127H622.693V119.96L635.673 117.54C638.46 117.1 639.853 115.34 639.853 112.26V17C639.853 13.92 638.46 12.16 635.673 11.72L622.693 9.08V2.04H670.213V9.08L657.673 11.72C654.886 12.4533 653.493 14.14 653.493 16.78V58.36H717.513V16.78C717.513 13.9933 716.12 12.3067 713.333 11.72L701.453 9.08V2.04H748.313V9.08Z" fill="currentColor"/>
</svg>
